<?xml version="1.0" encoding="UTF-8" standalone="no"?>
<!-- Created with Inkscape (http://www.inkscape.org/) -->

<svg
   width="105.52187mm"
   height="95.790573mm"
   viewBox="0 0 105.52186 95.790571"
   version="1.1"
   id="svg5"
   inkscape:version="1.1 (c68e22c387, 2021-05-23)"
   sodipodi:docname="inkscapeLogo.svg"
   inkscape:export-filename="C:\Users\zacha\Downloads\orcaLogo.png"
   inkscape:export-xdpi="300"
   inkscape:export-ydpi="300"
   xmlns:inkscape="http://www.inkscape.org/namespaces/inkscape"
   xmlns:sodipodi="http://sodipodi.sourceforge.net/DTD/sodipodi-0.dtd"
   xmlns="http://www.w3.org/2000/svg"
   xmlns:svg="http://www.w3.org/2000/svg">
  <sodipodi:namedview
     id="namedview7"
     pagecolor="#505050"
     bordercolor="#eeeeee"
     borderopacity="1"
     inkscape:pageshadow="0"
     inkscape:pageopacity="0"
     inkscape:pagecheckerboard="0"
     inkscape:document-units="mm"
     showgrid="false"
     inkscape:zoom="2.1156253"
     inkscape:cx="216.24812"
     inkscape:cy="196.86851"
     inkscape:window-width="1920"
     inkscape:window-height="1009"
     inkscape:window-x="-8"
     inkscape:window-y="-8"
     inkscape:window-maximized="1"
     inkscape:current-layer="layer3"
     fit-margin-top="0"
     fit-margin-left="0"
     fit-margin-right="10"
     fit-margin-bottom="0" />
  <defs
     id="defs2" />
  <g
     inkscape:groupmode="layer"
     id="layer3"
     inkscape:label="Layer 3"
     transform="translate(-44.284348,-77.589798)">
    <circle
       style="fill:#00a8ff;fill-opacity:1;stroke:none;stroke-width:0.275144;stroke-linecap:round;stroke-linejoin:round"
       id="path6148"
       cx="92.04528"
       cy="125.35073"
       r="47.760933" />
    <circle
       style="fill:#0075ff;fill-opacity:1;stroke:none;stroke-width:0.275144;stroke-linecap:round;stroke-linejoin:round"
       id="circle7627"
       cx="92.04528"
       cy="125.35073"
       r="47.760933"
       clip-path="none" />
    <path
       style="fill:#0000ff;fill-opacity:1;stroke-width:0.440637"
       d="m 49.453302,146.77788 c -0.374297,-2.41088 6.642288,-1.4371 13.254533,-10.55638 2.978216,-4.10741 5.225013,-6.04418 8.642747,-7.45017 2.889779,-1.1888 6.93733,-1.36257 8.838448,-0.37947 1.559809,0.80661 2.887303,2.62734 3.297849,4.52317 0.35936,1.65947 0.139041,1.77165 -1.081812,0.55079 -1.838,-1.83799 -5.224013,-0.58046 -6.40859,2.38009 -1.325197,3.312 0.310904,6.87326 3.157686,6.87326 2.439077,0 3.892452,-1.06787 6.511552,-4.78439 4.922451,-6.98498 9.69926,-10.19914 15.152415,-10.19557 3.8331,0.003 6.30091,1.84266 6.97215,5.19885 0.32688,1.63438 0.0729,1.75091 -1.15026,0.52776 -2.87628,-2.87628 -7.559409,1.44886 -6.57977,6.07679 0.45031,2.12734 1.5919,3.17685 3.45346,3.17491 2.36275,-0.003 4.0367,-1.2783 6.74131,-5.13806 4.73415,-6.75615 9.37746,-9.8438 14.79807,-9.84025 2.95162,0.002 4.93835,1.0132 6.26491,3.18893 0.79466,1.30334 1.20218,3.41895 0.65857,3.41895 -0.12117,0 -0.61689,-0.39657 -1.10159,-0.88127 -1.33689,-1.33689 -3.2713,-1.12753 -5.08905,0.5508 -2.74195,2.53164 -2.64191,6.6053 0.2365,9.63114 1.63,1.71349 3.94546,1.64935 3.94546,1.64935 l 5.35609,-0.2795 c -10.65626,30.63073 -63.813303,43.67407 -85.870678,1.76027 z"
       id="path9262"
       sodipodi:nodetypes="csssssssscssscscsssssscc" />
  </g>
  <g
     inkscape:label="Layer 1"
     inkscape:groupmode="layer"
     id="layer1"
     transform="translate(-44.284348,-77.589798)" />
  <g
     inkscape:groupmode="layer"
     id="layer2"
     inkscape:label="Layer 2"
     transform="translate(-44.284348,-77.589798)">
    <g
       id="g6239"
       transform="translate(0.03180002,2.5288043)">
      <path
         style="fill:#9a0000;fill-opacity:1;stroke-width:0.149253"
         d="m 121.60419,153.95618 c -0.61046,-0.33099 -0.79138,-0.91393 -0.43308,-1.39538 0.2348,-0.3155 0.42589,-0.38893 1.10718,-0.42548 0.70782,-0.038 0.889,0.011 1.29076,0.34908 0.5448,0.45842 0.60647,0.9739 0.16886,1.4115 -0.36633,0.36633 -1.50969,0.39864 -2.13372,0.0603 z m 1.91775,-0.36752 c 0.21211,-0.23438 0.24067,-0.36711 0.12042,-0.5597 -0.2299,-0.36821 -0.79912,-0.62087 -1.40444,-0.62339 -0.61567,-0.003 -0.88805,0.21414 -0.88805,0.7065 0,0.69296 1.64884,1.05475 2.17207,0.47659 z m -63.56047,-1.4865 c -0.85911,-0.6779 -0.234175,-1.7437 1.110515,-1.89392 0.872115,-0.0974 1.511129,0.36349 1.443122,1.04092 -0.0958,0.95426 -1.732476,1.50096 -2.553637,0.853 z m 1.957601,-0.39804 c 0.430793,-0.26865 0.385411,-0.7942 -0.08892,-1.02975 -0.451317,-0.22412 -1.52085,-0.0256 -1.781353,0.33069 -0.620301,0.84831 0.787284,1.37443 1.870273,0.69906 z m 31.776492,-0.61584 -0.856365,-0.97554 -0.856516,0.0322 c -2.091741,0.0786 -3.709691,-1.86847 -3.204976,-3.85689 l 0.149,-0.58702 -1.29611,-1.46222 c -3.600638,-4.06209 -15.044918,-17.17115 -15.157199,-17.36208 -0.166758,-0.28357 0.268538,0.12331 8.87671,8.29737 3.981319,3.78054 7.700258,7.30486 8.264307,7.83183 l 1.025545,0.95813 1.008053,-0.0466 c 0.787969,-0.0364 1.139314,0.0204 1.609258,0.26014 1.209218,0.6169 1.959183,2.05915 1.741315,3.34871 -0.09861,0.58366 -0.0842,0.60772 0.900484,1.50377 l 1.000695,0.91062 -1.173918,1.06156 -1.173918,1.06156 z m 28.437987,0.49561 c -0.62297,-0.27077 -0.8965,-0.82911 -0.66022,-1.34768 0.50386,-1.10584 2.89891,-0.61068 2.89891,0.59933 0,0.8597 -1.12064,1.2343 -2.23869,0.74835 z m 1.61418,-0.23054 c 0.337,-0.18036 0.38226,-0.77606 0.0781,-1.02846 -0.51245,-0.4253 -1.91345,-0.3762 -2.08586,0.0731 -0.27061,0.70519 1.18287,1.39682 2.00773,0.95537 z M 64.361839,150.3608 c 0.03906,-0.20284 0.582975,-0.34659 2.809434,-0.74249 1.518546,-0.27002 2.777784,-0.49264 2.798306,-0.49472 0.02052,-0.002 0.03731,0.13055 0.03731,0.29473 0,0.16417 -0.01679,0.29855 -0.03731,0.2986 -0.02052,6e-5 -1.179098,0.20151 -2.574611,0.44766 -2.978048,0.5253 -3.097999,0.53306 -3.033129,0.19622 z m 51.988061,-0.12932 c -1.06716,-0.19409 -2.15857,-0.39234 -2.42536,-0.44054 -0.35635,-0.0644 -0.48507,-0.16685 -0.48507,-0.38615 0,-0.25559 0.0697,-0.28567 0.48507,-0.20919 0.26679,0.0491 1.52581,0.27369 2.79783,0.49902 1.85667,0.32892 2.32241,0.4598 2.36168,0.66372 0.0645,0.3348 -0.28499,0.31859 -2.73415,-0.12686 z m 6.62797,-1.55943 c -0.38535,-0.41044 -0.74138,-0.74626 -0.79118,-0.74626 -0.0498,0 -0.0916,0.1847 -0.0928,0.41044 -0.003,0.45041 -0.22595,0.90361 -0.373,0.75656 -0.0998,-0.0998 0.1695,-1.75724 0.30797,-1.8957 0.0457,-0.0457 0.26191,0.14994 0.48048,0.43474 0.21857,0.28481 0.61517,0.74 0.88133,1.01153 0.41032,0.4186 0.5303,0.46888 0.78874,0.33057 0.35886,-0.19205 0.39663,-0.63649 0.0809,-0.95219 -0.28201,-0.28202 -0.28351,-0.39446 -0.005,-0.39446 0.51828,0 0.70566,1.13591 0.25469,1.54402 -0.44489,0.40262 -0.79107,0.2898 -1.53187,-0.49925 z m -58.791838,-0.18421 c 0,-0.16941 0.275498,-0.24578 1.156709,-0.32066 0.63619,-0.0541 1.442156,-0.13811 1.791034,-0.18679 0.498685,-0.0696 0.634325,-0.0416 0.634325,0.13087 0,0.16706 -0.293613,0.24357 -1.231336,0.32087 -0.677235,0.0558 -1.4832,0.14123 -1.791034,0.18979 -0.435823,0.0687 -0.559698,0.0391 -0.559698,-0.13408 z m 53.070978,-0.0227 c -0.92515,-0.10383 -1.50395,-0.23622 -1.54228,-0.35277 -0.0726,-0.22075 0.10903,-0.21953 2.11562,0.0142 0.91923,0.10706 1.5039,0.24314 1.54228,0.35898 0.0711,0.21444 -0.0323,0.21345 -2.11562,-0.0204 z M 64.036779,146.5985 c 0,-0.24352 0.457391,-0.31447 2.02712,-0.31447 1.752718,0 2.074876,0.20623 0.547491,0.35049 -1.433934,0.13542 -2.574611,0.11947 -2.574611,-0.036 z m 52.499691,0.0236 c -0.38993,-0.0308 -0.70896,-0.11939 -0.70896,-0.19698 0,-0.15426 3.10781,-0.19915 3.49524,-0.0505 0.8078,0.30998 -0.50956,0.42698 -2.78628,0.24746 z m -51.566861,-1.79188 c -1.643305,-0.0933 -1.022648,-0.33725 0.858204,-0.33725 1.492528,0 1.791034,0.0373 1.791034,0.22388 0,0.23239 -0.316087,0.24591 -2.649238,0.11337 z m 50.857901,-0.091 c 0,-0.21567 0.23154,-0.24623 1.86566,-0.24623 1.14428,0 1.86566,0.0577 1.86566,0.14926 0,0.0821 -0.22475,0.14925 -0.49945,0.14925 -0.2747,0 -1.11425,0.0436 -1.86566,0.097 -1.20921,0.0858 -1.36621,0.0687 -1.36621,-0.14925 z m -49.892135,-1.66361 c -0.884865,-0.10087 -1.651652,-0.22621 -1.70397,-0.27853 -0.242798,-0.24279 0.221626,-0.26733 1.813915,-0.0958 1.276043,0.13746 1.72278,0.23901 1.72278,0.39164 0,0.11333 -0.05037,0.19707 -0.11194,0.18608 -0.06157,-0.011 -0.83592,-0.10251 -1.720785,-0.20338 z m 49.795195,0.038 c -0.0452,-0.0731 -0.0587,-0.15589 -0.0299,-0.18387 0.0287,-0.028 0.84464,-0.13224 1.8131,-0.2317 1.60779,-0.16512 2.09161,-0.14208 1.86091,0.0886 -0.15765,0.15765 -3.56004,0.46292 -3.64407,0.32696 z m 6.4794,-0.34677 c -0.80611,-0.43739 -0.66222,-1.40587 0.26651,-1.79392 1.02814,-0.42959 1.99552,-0.15804 2.22122,0.6235 0.12777,0.44242 -0.40777,1.06253 -1.07852,1.24882 -0.71919,0.19974 -0.91686,0.18874 -1.40921,-0.0784 z m 1.79324,-0.44648 c 0.42216,-0.29569 0.43401,-0.89643 0.022,-1.11691 -0.41357,-0.22133 -1.36721,-0.0479 -1.76269,0.32052 -0.36395,0.33907 -0.36737,0.35477 -0.16118,0.74004 0.19628,0.36675 1.40745,0.40263 1.90183,0.0564 z m -62.354476,0.41635 c 0,-0.063 -0.310576,-0.46954 -0.690169,-0.90347 -0.49313,-0.56372 -0.780752,-0.77604 -1.007456,-0.7437 -0.355531,0.0507 -0.522071,0.64645 -0.255299,0.91322 0.08904,0.089 0.16189,0.25961 0.16189,0.37905 0,0.17239 -0.06155,0.16146 -0.298506,-0.053 -0.334257,-0.3025 -0.403223,-1.10423 -0.119402,-1.38805 0.396157,-0.39616 0.967164,-0.20146 1.65597,0.56466 0.622912,0.69283 0.674833,0.72094 0.758057,0.41045 0.04914,-0.18333 0.09026,-0.49004 0.09138,-0.68158 0.0011,-0.19155 0.07424,-0.32419 0.162485,-0.29478 0.203587,0.0679 0.201457,0.0378 0.07455,1.05348 -0.07422,0.59407 -0.172825,0.8582 -0.320365,0.8582 -0.117227,0 -0.213139,-0.0515 -0.213139,-0.1145 z m 5.596981,-1.16187 c -1.067158,-0.1941 -2.158569,-0.39234 -2.425359,-0.44054 -0.441996,-0.0799 -0.655671,-0.40568 -0.373132,-0.56895 0.06157,-0.0356 1.320387,0.14733 2.797378,0.40647 2.189731,0.38419 2.694551,0.51848 2.734808,0.72752 0.065,0.3375 -0.279852,0.3218 -2.733695,-0.1245 z m 46.220305,0.12932 c 0.0391,-0.20284 0.58298,-0.34659 2.80944,-0.74249 1.51854,-0.27002 2.77778,-0.49265 2.7983,-0.49473 0.0205,-0.002 0.0373,0.12522 0.0373,0.28287 0,0.32204 0.13849,0.28286 -2.93275,0.8298 -2.53415,0.45129 -2.77738,0.46246 -2.71231,0.12455 z m 8.03203,-1.42579 c -0.4513,-0.48441 -0.35689,-1.29806 0.18579,-1.60129 0.33592,-0.18769 0.46234,-0.19475 0.71066,-0.0397 0.25067,0.15655 0.36626,0.14656 0.67959,-0.0588 0.51457,-0.33716 1.04664,-0.0942 1.18631,0.5417 0.13904,0.63302 -0.26397,1.09422 -0.87749,1.00417 -0.2912,-0.0427 -0.52814,0.0278 -0.71231,0.21193 -0.36914,0.36914 -0.79415,0.34808 -1.17255,-0.0581 z m 1.14125,-0.33792 c 0.0473,-0.12332 0.0439,-0.39197 -0.008,-0.59701 -0.0735,-0.2926 -0.18868,-0.3728 -0.53565,-0.3728 -0.34767,0 -0.46217,0.0801 -0.53621,0.37507 -0.054,0.21512 -0.0156,0.46972 0.0901,0.59701 0.23889,0.28784 0.87856,0.28637 0.98932,-0.002 z m 1.24192,-0.29101 c 0.30048,-0.36206 0.045,-0.85292 -0.41603,-0.79942 -0.40234,0.0467 -0.57682,0.38246 -0.41622,0.80097 0.1067,0.27807 0.60096,0.27714 0.83225,-0.002 z m -63.538346,0.59125 c -0.622966,-0.27077 -0.896494,-0.82911 -0.660219,-1.34767 0.503856,-1.10585 2.898909,-0.61068 2.898909,0.59933 0,0.85969 -1.120639,1.2343 -2.23869,0.74834 z m 1.520022,-0.22159 c 0.431277,-0.16397 0.527389,-0.7427 0.172287,-1.03741 -0.512447,-0.42529 -1.913449,-0.3762 -2.085859,0.0731 -0.267192,0.69629 0.973739,1.32164 1.913572,0.96431 z m 4.449989,-0.57186 c -1.003779,-0.25441 -1.529842,-0.4578 -1.529842,-0.59148 0,-0.1238 0.102481,-0.1736 0.261192,-0.12692 0.143656,0.0422 0.697757,0.18517 1.231336,0.3176 1.883814,0.46754 2.08954,0.53412 2.08954,0.67621 0,0.20552 -0.328863,0.16139 -2.052226,-0.27541 z m 48.768365,0.27541 c 0,-0.14209 0.20573,-0.20867 2.08954,-0.67621 0.53358,-0.13243 1.08768,-0.27535 1.23134,-0.3176 0.16363,-0.0481 0.26119,0.004 0.26119,0.13869 0,0.1492 -0.48085,0.33601 -1.56261,0.60707 -1.70286,0.4267 -2.01946,0.46559 -2.01946,0.24805 z m -48.333667,-2.04923 c -1.028087,-0.35142 -1.493125,-0.57717 -1.393722,-0.67658 0.171454,-0.17145 3.459008,0.86511 3.459008,1.09062 0,0.22818 -0.450877,0.13779 -2.065286,-0.41404 z m 47.885907,0.41 c 0,-0.11623 3.16476,-1.20232 3.50343,-1.20232 0.0569,0 0.0794,0.0725 0.0498,0.161 -0.0509,0.15279 -2.97217,1.17722 -3.36671,1.18065 -0.10261,9e-4 -0.18657,-0.0618 -0.18657,-0.13933 z m 6.26862,-0.2117 c 0,-0.13825 0.37052,-0.26282 1.15671,-0.38889 0.63619,-0.10201 1.20933,-0.21733 1.27365,-0.25625 0.0643,-0.0389 -0.0539,-0.20513 -0.26261,-0.36933 -0.20876,-0.16421 -0.3415,-0.36014 -0.29498,-0.43542 0.12084,-0.19552 1.1257,0.64017 1.07765,0.89622 -0.0265,0.14112 -0.4936,0.30187 -1.38326,0.47602 -1.66402,0.32572 -1.56716,0.32092 -1.56716,0.0777 z m -53.277466,-1.80755 c -0.858747,-0.35245 -1.586354,-0.71581 -1.616906,-0.80746 -0.08473,-0.2542 0.06235,-0.21585 1.793608,0.46768 0.883652,0.34888 1.607066,0.71828 1.607587,0.82089 0.0013,0.25119 -0.0026,0.25014 -1.784289,-0.48111 z m 46.477516,0.50395 c -0.0526,-0.085 -0.0721,-0.17275 -0.0433,-0.19489 0.24733,-0.19052 3.29544,-1.29867 3.36921,-1.22489 0.18256,0.18255 -0.0291,0.29081 -2.52738,1.29255 -0.45989,0.18441 -0.73599,0.2284 -0.79852,0.12723 z m -45.874862,-2.23044 c -1.072975,-0.51596 -1.507743,-0.79607 -1.40112,-0.90269 0.106623,-0.10663 0.647254,0.0904 1.74228,0.63501 1.46704,0.72961 1.871328,1.02333 1.401121,1.01792 -0.102611,-0.001 -0.886638,-0.33879 -1.742281,-0.75024 z m 45.150372,0.62388 c -0.0437,-0.0707 0.6072,-0.44681 1.4464,-0.83587 1.96118,-0.90919 1.89896,-0.88643 1.89896,-0.69474 0,0.15703 -2.82724,1.65912 -3.12279,1.65912 -0.0787,0 -0.17889,-0.0578 -0.22257,-0.12851 z m -43.339684,-1.55803 c -2.242212,-1.27779 -2.63824,-1.59325 -2.278921,-1.81532 0.189894,-0.11736 4.934378,2.62905 4.934378,2.85633 0,0.0991 -0.05533,0.21435 -0.122956,0.25614 -0.06763,0.0418 -1.207252,-0.54192 -2.532501,-1.29715 z m 40.804434,1.1491 c -0.0531,-0.13836 -0.0782,-0.26572 -0.0557,-0.28304 0.4959,-0.38247 4.80942,-2.73772 4.90538,-2.67841 0.35442,0.21904 -0.0396,0.53747 -2.20551,1.78248 -2.7913,1.60448 -2.52624,1.48629 -2.64417,1.17897 z m -47.624655,-3.04091 c -0.4945,-0.98194 -0.663308,-1.58399 -0.412322,-1.47052 0.06157,0.0278 0.478591,0.24317 0.926721,0.47852 0.514893,0.27042 0.835342,0.36624 0.870642,0.26034 0.09864,-0.29593 0.367168,-0.17853 0.287602,0.12573 -0.05224,0.19977 0.01361,0.32198 0.206471,0.38319 0.155747,0.0494 0.283175,0.14855 0.283175,0.22027 0,0.20804 -0.268782,0.31684 -0.371627,0.15043 -0.178743,-0.28921 -0.457391,-0.14912 -0.737331,0.3707 -0.154728,0.28731 -0.337066,0.52239 -0.405197,0.52239 -0.06813,0 -0.359791,-0.46847 -0.648134,-1.04105 z m 0.881765,0.16849 c 0.216457,-0.41858 0.211223,-0.42954 -0.357752,-0.74932 l -0.577422,-0.32453 0.316581,0.74932 c 0.174119,0.41213 0.335107,0.74933 0.357752,0.74933 0.02264,0 0.140023,-0.19116 0.260841,-0.4248 z m 54.78936,0.51469 c -0.29077,-0.29077 -0.36711,-0.4803 -0.2927,-0.7267 0.15967,-0.52871 0.82658,-1.14619 1.43475,-1.32841 0.46782,-0.14016 0.62249,-0.12601 0.94705,0.0867 0.21336,0.13979 0.42514,0.35115 0.47062,0.46969 0.25311,0.65959 -0.64159,1.64469 -1.64106,1.80688 -0.4334,0.0703 -0.5941,0.0164 -0.91866,-0.30812 z m 1.60925,-0.33986 c 0.2293,-0.11668 0.49554,-0.38472 0.59164,-0.59563 0.15208,-0.33378 0.13197,-0.41812 -0.15518,-0.65063 -0.39334,-0.31851 -0.81106,-0.24671 -1.4877,0.25572 -0.54338,0.40347 -0.64887,0.98179 -0.22388,1.22733 0.2803,0.16196 0.61287,0.1002 1.27512,-0.23679 z m -50.341995,-0.58089 c -1.34733,-0.91389 -1.718401,-1.25868 -1.354638,-1.25868 0.281713,0 2.98918,1.85651 2.992886,2.05223 0.0056,0.29448 -0.133562,0.22709 -1.638248,-0.79355 z m 41.572685,0.8402 c -0.0799,-0.1293 2.28046,-1.83402 2.83293,-2.04602 0.59303,-0.22756 0.0881,0.2773 -1.08498,1.08492 -1.66117,1.14363 -1.64174,1.13295 -1.74795,0.9611 z m -40.453289,-2.27423 c -1.154808,-0.89748 -1.678576,-1.46645 -1.349944,-1.46645 0.04941,0 0.709187,0.48281 1.466158,1.07292 0.756973,0.59011 1.405419,1.09495 1.44099,1.12188 0.03557,0.0269 0.002,0.10896 -0.07463,0.18228 -0.08351,0.0799 -0.677265,-0.28477 -1.482578,-0.91063 z m 39.416859,0.94442 c -0.0479,-0.0775 0.50022,-0.60424 1.21805,-1.17052 1.57915,-1.24576 1.63529,-1.28139 1.74336,-1.10653 0.0696,0.11255 -0.77932,0.83122 -2.70104,2.28673 -0.10115,0.0766 -0.20953,0.0726 -0.26037,-0.01 z m 6.99399,-0.53843 c -0.44823,-0.44823 -0.46321,-0.81353 -0.0547,-1.33291 0.69529,-0.88392 2.02393,-1.13534 2.4625,-0.46599 0.25781,0.39346 0.1886,1.12048 -0.10666,1.12048 -0.1005,0 -0.12546,-0.14795 -0.0654,-0.38741 0.12464,-0.49659 -0.1334,-0.80661 -0.67135,-0.80661 -0.5481,0 -0.65296,0.19303 -0.28552,0.52557 0.29432,0.26635 0.38851,0.89467 0.18076,1.20581 -0.13238,0.19826 -0.69748,0.50741 -0.92751,0.50741 -0.0912,0 -0.33071,-0.16486 -0.5322,-0.36635 z m 1.09633,-0.26051 c 0.27645,-0.27645 0.21377,-0.63181 -0.17603,-0.99801 l -0.35514,-0.33363 -0.31447,0.39978 c -0.17295,0.21988 -0.29215,0.44226 -0.26489,0.49418 0.0273,0.0519 0.0914,0.21193 0.14254,0.35559 0.10668,0.29975 0.70001,0.35007 0.96799,0.0821 z m -54.468607,-0.0374 c -0.569757,-0.38716 -0.725093,-0.6422 -0.725093,-1.19049 0,-0.69628 0.921331,-1.05868 1.688907,-0.66433 1.014709,0.52132 1.443551,1.45482 0.912357,1.98601 -0.354583,0.35459 -1.253824,0.29171 -1.876171,-0.13119 z m 1.721762,-0.26859 c 0.423053,-0.67565 -1.233582,-1.75575 -1.921073,-1.25251 -0.244026,0.17863 -0.269862,0.28668 -0.149253,0.6242 0.283523,0.79343 1.698129,1.22274 2.070326,0.62831 z m 7.0307,-0.66381 c -1.771955,-1.61399 -2.029038,-1.88161 -1.915306,-1.99381 0.128554,-0.12683 2.736197,2.17037 2.736197,2.41045 0,0.24425 -0.215272,0.13499 -0.820891,-0.41664 z m 36.585295,0.43231 c -0.0754,-0.12196 2.4549,-2.56699 2.65649,-2.56699 0.31579,0 -0.0647,0.51449 -0.99574,1.3466 -1.43671,1.28398 -1.56375,1.37734 -1.66075,1.22039 z m -34.122623,-2.7088 c -0.944024,-1.13594 -1.716408,-2.15082 -1.716408,-2.25529 0,-0.53916 0.498957,-0.1042 2.163269,1.88578 1.394028,1.66681 1.780357,2.21802 1.623985,2.31707 -0.112852,0.0715 -0.238768,0.12722 -0.279812,0.12388 -0.04104,-0.003 -0.84701,-0.9355 -1.791034,-2.07144 z m 30.343213,1.91802 c -0.12424,-0.12423 0.29547,-0.71567 1.61657,-2.27797 1.70327,-2.01424 2.04886,-2.32244 2.17613,-1.94062 0.0499,0.14986 -3.27346,4.24796 -3.52544,4.34722 -0.0547,0.0215 -0.17497,-0.0363 -0.26726,-0.12863 z m 10.70132,-0.33128 c 0,-0.12387 0.43361,-0.46771 0.96358,-0.76408 0.52997,-0.29638 1.0007,-0.59893 1.04607,-0.67234 0.0454,-0.0734 -0.11958,-0.17786 -0.36657,-0.2321 -0.61069,-0.13413 -0.58972,-0.43887 0.0218,-0.31657 0.4955,0.0991 0.87243,0.33956 0.87243,0.55656 0,0.1293 -0.50136,0.46972 -1.82835,1.24145 -0.54939,0.3195 -0.70895,0.36161 -0.70895,0.18708 z m -42.963437,-1.23452 c -1.140173,-1.21865 -1.377417,-1.55369 -1.100171,-1.55369 0.06338,0 0.682226,0.56996 1.375216,1.26656 0.895472,0.90015 1.213748,1.3128 1.100171,1.42637 -0.113577,0.11358 -0.511422,-0.216 -1.375216,-1.13924 z m 34.864267,1.18592 c -0.13172,-0.21958 2.39234,-2.83453 2.56722,-2.65965 0.10648,0.10648 -0.25648,0.56355 -1.16807,1.47091 -0.7274,0.72404 -1.35702,1.25897 -1.39915,1.18874 z m -31.986397,-3.36516 c -1.124917,-1.55515 -1.142789,-1.58581 -1.030382,-1.76768 0.09502,-0.15375 2.160955,2.56107 2.160955,2.83967 0,0.3595 -0.30276,0.0724 -1.130573,-1.07199 z m 29.385917,1.01803 c 0.18203,-0.47438 2.08295,-2.92269 2.20883,-2.84489 0.16823,0.10397 0.15574,0.12519 -1.0266,1.74346 -0.52479,0.71828 -1.02314,1.30597 -1.10744,1.30597 -0.0843,0 -0.11796,-0.0921 -0.0748,-0.20454 z m -27.451472,-1.3198 c -0.220466,-0.35191 -0.612883,-0.97565 -0.872038,-1.38609 -0.259157,-0.41045 -0.518842,-0.82558 -0.57708,-0.92252 -0.05824,-0.0969 -0.03913,-0.21751 0.04246,-0.26794 0.130833,-0.0809 0.671764,0.67779 1.771562,2.4846 0.200744,0.32979 0.274271,0.58448 0.184718,0.63983 -0.08183,0.0506 -0.329156,-0.19598 -0.54962,-0.54788 z m 26.025812,0.54324 c -0.0471,-0.0471 0.35464,-0.78938 0.8927,-1.64957 0.57754,-0.9233 1.03315,-1.50912 1.11222,-1.43006 0.0791,0.0791 -0.25097,0.75388 -0.80565,1.64731 -0.91949,1.48106 -1.02478,1.60681 -1.19927,1.43232 z m -21.494352,-2.86214 c -0.812177,-2.20743 -0.938219,-2.67019 -0.755792,-2.77486 0.120417,-0.0691 0.24873,-0.0958 0.28514,-0.0594 0.03641,0.0364 0.493672,1.23472 1.016134,2.66292 0.894632,2.44554 0.961432,2.80726 0.520469,2.81831 -0.05017,10e-4 -0.529846,-1.18987 -1.065951,-2.64695 z m 16.217009,2.55727 c -0.162886,-0.0666 1.682753,-5.43289 1.866923,-5.42811 0.4613,0.012 0.40148,0.35087 -0.49987,2.83187 -0.51999,1.43127 -1.003413,2.61604 -1.074273,2.63282 -0.0709,0.0168 -0.20261,3e-4 -0.29278,-0.0366 z m -19.723993,-1.98654 c -0.430968,-0.8123 -0.783578,-1.55007 -0.783578,-1.63949 0,-0.44106 0.322636,-0.0244 1.057622,1.36585 1.000775,1.89299 0.945223,1.75557 0.708536,1.75284 -0.109451,-0.001 -0.551613,-0.6669 -0.98258,-1.4792 z m 23.540026,1.36955 c -0.0114,-0.2773 1.5919,-3.16719 1.75833,-3.16928 0.10261,-10e-4 0.18657,0.0275 0.18657,0.064 0,0.2032 -1.69002,3.21718 -1.80396,3.21718 -0.075,0 -0.1384,-0.0504 -0.14094,-0.11194 z m -33.336033,-0.93326 c -0.685932,-0.75924 -0.761504,-1.63842 -0.173928,-2.02342 0.215367,-0.14111 0.4916,-0.19978 0.671638,-0.14263 0.458845,0.14563 0.368413,0.35048 -0.178036,0.4033 -0.524189,0.0507 -0.657923,0.3116 -0.494147,0.96414 l 0.09321,0.37137 0.427649,-0.4578 c 0.516753,-0.55319 0.945023,-0.5805 1.434066,-0.0914 0.446969,0.44696 0.457795,0.67116 0.05701,1.18067 -0.4861,0.61798 -1.162605,0.54281 -1.837461,-0.20418 z m 1.54297,0.0833 c 0.09844,-0.11861 0.157038,-0.37048 0.130214,-0.55969 -0.03774,-0.26623 -0.158233,-0.3546 -0.532768,-0.39073 -0.396352,-0.0382 -0.515197,0.0218 -0.65627,0.3314 -0.133364,0.2927 -0.129479,0.42965 0.0172,0.60639 0.239312,0.28835 0.80708,0.29524 1.041621,0.0126 z m 41.321063,0.25298 c -0.40514,-0.47176 -0.43099,-0.61513 -0.20741,-1.15025 0.31552,-0.75513 0.92864,-1.27511 1.50351,-1.27511 0.86363,0 1.20821,0.75107 0.75059,1.63602 -0.48278,0.93359 -1.56453,1.35079 -2.04669,0.78934 z m 1.38834,-0.50249 c 0.75477,-0.80798 0.70767,-1.62436 -0.0937,-1.62436 -0.4231,0 -1.26584,0.92756 -1.26584,1.39324 0,0.79479 0.71885,0.91699 1.35955,0.23112 z m -32.808881,-0.9934 c -0.755715,-1.74539 -0.752846,-1.73623 -0.565402,-1.80558 0.08209,-0.0304 0.463094,0.64127 0.846678,1.49253 0.782407,1.73635 0.793458,1.77294 0.53391,1.76827 -0.102611,-0.002 -0.469445,-0.6567 -0.815186,-1.45522 z M 91.4993,120.68718 c 0,-2.71235 0.01959,-2.92855 0.261192,-2.88202 0.237809,0.0458 0.261193,0.30381 0.261193,2.88202 0,2.57821 -0.02338,2.83622 -0.261193,2.88201 -0.241598,0.0465 -0.261192,-0.16967 -0.261192,-2.88201 z m 9.99994,2.74164 c 0,-0.29373 1.37565,-3.26403 1.51169,-3.26403 0.22308,0 0.15075,0.23886 -0.56301,1.85928 -0.62026,1.40817 -0.94868,1.89447 -0.94868,1.40475 z m 9.48429,-1.01434 c -0.0608,-0.0984 -0.006,-0.29448 0.12172,-0.43567 0.21333,-0.23573 0.18907,-0.29121 -0.29695,-0.67902 -0.32051,-0.25574 -0.47534,-0.47623 -0.39254,-0.55903 0.23428,-0.23429 2.30185,-0.76051 2.44108,-0.62129 0.0746,0.0746 -0.12538,0.44036 -0.46667,0.85337 -0.44562,0.53925 -0.55692,0.77137 -0.43837,0.91421 0.10189,0.12278 0.10645,0.22386 0.0127,0.2818 -0.0804,0.0497 -0.19402,0.013 -0.25248,-0.0816 -0.0718,-0.11617 -0.18932,-0.0619 -0.36209,0.16712 -0.18014,0.23882 -0.28851,0.28619 -0.3664,0.16015 z m 0.96286,-1.42821 c 0.19249,-0.2049 0.32164,-0.40089 0.28699,-0.43554 -0.0346,-0.0346 -0.38207,0.01 -0.77204,0.0993 -0.67476,0.1544 -0.69708,0.17546 -0.46172,0.43554 0.33076,0.36549 0.52976,0.34463 0.94677,-0.0993 z m -40.103905,1.12485 c -1.425575,-0.86922 -1.075923,-3.00676 0.392353,-2.39858 0.577892,0.23937 1.204869,1.11407 1.204869,1.68092 0,0.46524 -0.463431,1.01041 -0.858204,1.00957 -0.143655,-3e-4 -0.476213,-0.13167 -0.739018,-0.29191 z m 1.269306,-0.61952 c 0.02947,-0.25397 -0.09619,-0.55765 -0.360959,-0.87232 -0.47867,-0.56886 -0.926451,-0.77069 -1.288725,-0.58085 -0.400544,0.20989 -0.311637,0.80479 0.208871,1.39761 0.379269,0.43196 0.559445,0.52666 0.93283,0.49027 0.373511,-0.0364 0.471488,-0.12025 0.507983,-0.43471 z m 11.748291,0.72542 c -0.451475,-1.34286 -0.911043,-3.26673 -0.797157,-3.33711 0.07856,-0.0486 0.164383,-0.0648 0.190706,-0.036 0.05933,0.0648 0.97705,3.30959 0.97705,3.45457 0,0.18133 -0.304772,0.11436 -0.370599,-0.0814 z m 13.394019,0 c 0.0387,-0.10261 0.250113,-0.82462 0.469813,-1.60447 0.532163,-1.88897 0.522423,-1.86485 0.686933,-1.70033 0.2107,0.2107 -0.741755,3.49137 -1.013631,3.49137 -0.117411,0 -0.181814,-0.084 -0.143115,-0.18657 z M 86.5259,121.85891 c -0.26524,-0.9428 -0.713317,-3.37054 -0.636299,-3.44756 0.190291,-0.19029 0.346092,0.23162 0.668945,1.81151 0.212576,1.04025 0.280456,1.67687 0.18859,1.76874 -0.09187,0.0919 -0.171498,0.0441 -0.221236,-0.13269 z m 10.15133,0.14337 c -0.07862,-0.12721 0.594554,-3.48064 0.724868,-3.61096 0.251156,-0.25115 0.228281,0.36858 -0.06699,1.81507 -0.331519,1.62405 -0.492493,2.06348 -0.657875,1.79589 z m -8.513937,-0.68078 c -0.384132,-2.17509 -0.456785,-3.50672 -0.176005,-3.22594 0.08126,0.0813 0.526955,2.9667 0.526955,3.41153 0,0.48076 -0.2573,0.3447 -0.35095,-0.18559 z m 6.85542,0.35519 c -0.0458,-0.0741 0.02767,-0.91476 0.163285,-1.86809 0.180896,-1.27167 0.302393,-1.73335 0.456159,-1.73335 0.127769,0 0.181245,0.10197 0.136981,0.2612 -0.03994,0.14365 -0.156448,0.9526 -0.258918,1.79766 -0.175885,1.45053 -0.305677,1.85297 -0.497507,1.54258 z m -5.17419,-0.65369 c -0.0071,-0.26679 -0.05789,-1.07276 -0.112768,-1.79104 -0.07273,-0.952 -0.05261,-1.30596 0.07422,-1.30596 0.112239,0 0.206589,0.46353 0.265828,1.30596 0.05051,0.71828 0.119478,1.52425 0.153268,1.79104 0.04442,0.35074 0.002,0.48507 -0.153061,0.48507 -0.139827,0 -0.219019,-0.16886 -0.227491,-0.48507 z m 3.497421,-0.74627 c 0.05272,-0.67723 0.09626,-1.4832 0.09675,-1.79103 5.97e-4,-0.40215 0.06508,-0.5597 0.22893,-0.5597 0.190398,0 0.214042,0.16629 0.143258,1.00746 -0.179541,2.13353 -0.248779,2.57461 -0.404155,2.57461 -0.109444,0 -0.130088,-0.39241 -0.06478,-1.23134 z m 15.843466,0.63376 c -0.0545,-0.0882 0.24329,-0.57748 0.66174,-1.08734 l 0.76082,-0.92701 -0.44991,-0.0468 c -0.69511,-0.0723 -0.58586,-0.47561 0.12882,-0.47561 1.00373,0 0.99469,0.25141 -0.0553,1.53718 -0.54016,0.66149 -0.98971,1.09098 -1.04622,0.99955 z M 78.891101,117.7808 c -0.188936,-0.20877 -0.240183,-0.42593 -0.176117,-0.74627 0.05222,-0.26108 0.02758,-0.45181 -0.05836,-0.45181 -0.287607,0 -0.484764,-0.68379 -0.297855,-1.03303 0.449933,-0.84071 1.746339,-0.59975 1.614278,0.30004 -0.0403,0.27461 0.0024,0.43449 0.115985,0.43449 0.284243,0 0.552123,0.41223 0.552123,0.84964 0,0.81188 -1.199498,1.2553 -1.750055,0.64694 z m 1.183839,-0.20471 c 0.432865,-0.31652 0.201468,-0.99337 -0.339607,-0.99337 -0.464688,0 -0.773271,0.23825 -0.773271,0.59702 0,0.54572 0.610999,0.76333 1.112878,0.39635 z m -0.60279,-1.33905 c 0.419423,-0.30669 0.24543,-0.77371 -0.288254,-0.77371 -0.356226,0 -0.455827,0.0715 -0.496085,0.35625 -0.0277,0.19594 0.03946,0.41319 0.149253,0.48279 0.267152,0.16933 0.321861,0.16371 0.635086,-0.0653 z m 23.8965,1.39459 c -0.20913,-0.23108 -0.25031,-0.46181 -0.19156,-1.07322 0.061,-0.63436 0.1619,-0.85664 0.54412,-1.19816 0.25811,-0.23062 0.60256,-0.41931 0.76544,-0.41931 0.43408,0 0.89317,0.53202 0.89317,1.03506 0,1.43652 -1.26616,2.47886 -2.01117,1.65563 z m 1.24375,-0.38428 c 0.54571,-0.69375 0.58826,-1.72364 0.0793,-1.91895 -0.5363,-0.2058 -1.25215,0.66064 -1.25215,1.51557 0,0.81883 0.66592,1.04786 1.17287,0.40338 z m -3.24032,-0.18767 c -0.35726,-0.13919 -0.6485,-0.32024 -0.64722,-0.40233 10e-4,-0.0821 0.41235,-0.37424 0.91347,-0.64922 1.05076,-0.57659 1.28966,-0.89325 0.98659,-1.30772 -0.18214,-0.24909 -0.26256,-0.26044 -0.69333,-0.0978 -0.57303,0.21629 -0.7793,0.1058 -0.36627,-0.19621 0.40161,-0.29367 1.03387,-0.26451 1.32869,0.0613 0.53593,0.59219 0.18706,1.17328 -1.09626,1.82602 l -0.67164,0.34162 0.70895,0.22381 c 0.70268,0.22184 0.95049,0.47743 0.44776,0.4618 -0.14366,-0.004 -0.55349,-0.122 -0.91074,-0.26119 z m -20.126557,-0.21576 c -0.741087,-0.81365 -0.894219,-2.00767 -0.309964,-2.4169 0.63921,-0.44772 1.253689,-0.17732 1.739173,0.7653 0.645189,1.25272 -0.542461,2.62517 -1.429209,1.6516 z m 1.064066,-0.19723 c 0.684416,-0.68441 -0.448574,-2.61407 -1.178942,-2.00792 -0.561949,0.46638 0.0928,2.2043 0.843124,2.23792 0.0557,0.003 0.206822,-0.101 0.335818,-0.23 z m 17.249368,-0.27766 c 0,-0.0354 0.19881,-0.60366 0.441803,-1.26269 l 0.44181,-1.19825 -0.3769,0.14329 c -0.472933,0.17981 -0.655973,0.18138 -0.655973,0.006 0,-0.18602 1.003933,-0.50694 1.268393,-0.40546 0.17154,0.0658 0.12124,0.33505 -0.26735,1.43086 -0.26326,0.74237 -0.562613,1.35006 -0.665223,1.35042 -0.10261,3.6e-4 -0.18656,-0.0284 -0.18656,-0.0638 z M 89.06399,115.44094 c -0.05609,-0.0561 -0.101988,-0.67339 -0.101988,-1.37178 v -1.26979 l -0.372544,0.34999 c -0.204899,0.19249 -0.423135,0.29939 -0.484969,0.23756 -0.147058,-0.14706 0.828507,-1.01771 1.055932,-0.94237 0.112501,0.0373 0.190107,0.5537 0.217944,1.45032 0.04002,1.28904 -0.0633,1.79715 -0.314375,1.54607 z m 1.58773,-0.0804 c -0.459587,-0.22219 -0.697033,-0.89893 -0.604246,-1.72213 0.197599,-1.7531 2.048837,-1.57577 2.048837,0.19625 0,0.81519 -0.230985,1.32612 -0.695118,1.53759 -0.200033,0.0911 -0.377328,0.16117 -0.393987,0.15561 -0.01666,-0.006 -0.176629,-0.0808 -0.355486,-0.16732 z m 0.997853,-0.72056 c 0.230878,-0.55739 0.09666,-1.49727 -0.250019,-1.75076 -0.322574,-0.23588 -0.375931,-0.23406 -0.729931,0.0248 -0.351149,0.25677 -0.407623,1.54049 -0.08488,1.92938 0.337765,0.40698 0.852746,0.30861 1.064829,-0.20341 z m 1.114995,0.39139 c -0.585468,-0.89354 -0.324998,-2.37163 0.452309,-2.56672 1.169747,-0.29359 1.83595,1.3626 1.037988,2.58044 -0.318725,0.48644 -1.167702,0.47862 -1.490297,-0.0137 z m 1.266779,-0.22986 c 0.241217,-0.45071 0.187191,-1.51734 -0.09251,-1.8264 -0.529137,-0.58469 -1.096264,-0.13621 -1.096264,0.86692 0,0.85623 0.210902,1.24818 0.671638,1.24818 0.205767,0 0.429463,-0.12488 0.517134,-0.2887 z"
         id="path5946"
         sodipodi:nodetypes="ssssssssscsssssssscsccsscsssscssssccccssssscssssscssssssssssscscssssssssccscssscsssscssssssssscsscsscsssscsssssssssccssccssssssssssssssssssssscssssscsssssscsssscsscsccccccssccccssccsssssssssscssssssssssssscscsccssssssssssssssscssssssscsssssssssssscsssscssssssssssscssssssscsssssssssssssssssssssssscsssccccsscssssccsscscsssssssssssssssssscssssscscscccssssssssssssssssssssssssssssssssssssssssssssscssssssssssscsccsscccsscscscscccscssccssssssssssssscssssssssssscsssssssssssscssssssssssssssccssssssssssssssssssssssssssssssssssssscssssscscsssccsssssssssssssssssssscsssssssssccsscscscscccsssssscssscssssssssscsscsscsscccsssssssssssssssss" />
      <g
         id="g5842">
        <path
           style="fill:#ffffff;fill-opacity:1;stroke:#000000;stroke-width:0.264583px;stroke-linecap:butt;stroke-linejoin:miter;stroke-opacity:1"
           d="m 53.026087,122.81042 c 0,0 12.756274,-5.50271 22.386012,-5.00246 9.629738,0.50024 20.385029,-0.12507 30.139831,8.37912 9.75479,8.50418 10.3801,13.0064 10.3801,13.0064 l 8.25406,1.37567 -0.50024,-26.51304 L 88.668621,99.548973 54.401764,116.43228 Z"
           id="path5293" />
        <g
           id="g5254">
          <path
             style="fill:#000000;fill-opacity:1;stroke:#000000;stroke-width:0.264583px;stroke-linecap:butt;stroke-linejoin:miter;stroke-opacity:1"
             d="m 53.026087,122.81042 c -3.626785,-3.75185 2.751353,-18.38405 7.503692,-23.261446 5.029554,-5.161908 10.505167,-8.379123 16.508121,-10.004921 6.002951,-1.625801 9.629738,-1.750862 9.629738,-1.750862 0,0 1.875922,-2.50123 8.379121,-4.627276 6.503201,-2.126047 9.255121,-2.266092 12.756271,-2.126047 10.22208,0.554083 2.31084,3.910362 -0.12506,6.503199 -1.87592,2.126047 -2.12604,3.126539 -2.12604,3.126539 0,0 11.13047,5.627767 15.75775,10.630224 4.62728,5.00247 9.00443,13.13147 10.12998,18.25899 1.12556,5.12752 0.50025,15.50762 0,16.75824 -0.50024,1.25061 -4.25209,4.37716 -5.75283,4.8774 -1.50074,0.50025 -7.12851,1.37568 -9.87986,-0.50024 -2.75135,-1.87593 1.6258,-1.37568 2.00099,-2.6263 0.37518,-1.25061 0.87543,-5.62777 -2.25111,-11.75578 -3.12654,-6.12801 -15.38257,-17.00837 -23.63663,-17.00837 -8.25406,0 -5.87789,4.62728 -5.002461,5.50271 0.875432,0.87543 6.378138,4.25209 7.253568,5.25258 0.875432,1.00049 -1.250614,1.75086 -3.2516,1.6258 -2.000982,-0.12506 -9.004429,-1.12555 -12.256029,-3.62678 -3.251599,-2.50123 -5.87789,-4.25209 -6.378138,-4.75234 -0.500245,-0.50025 -1.375674,-1.25061 -2.50123,-1.25061 -1.125554,0 -4.377153,-0.62531 -10.630228,4.25209 -6.253078,4.8774 -6.128015,6.5032 -6.128015,6.5032 z"
             id="path2338"
             sodipodi:nodetypes="csscscccsssssssssssssssc" />
          <path
             style="fill:#ffffff;fill-opacity:1;stroke:#000000;stroke-width:0.264583px;stroke-linecap:butt;stroke-linejoin:miter;stroke-opacity:1"
             d="m 66.407669,102.92564 c 2.751355,3.37665 -5.502706,9.75479 -7.628752,7.50369 -2.126046,-2.25111 3.876908,-9.00443 7.628752,-7.50369 z"
             id="path4861"
             sodipodi:nodetypes="csc" />
        </g>
      </g>
    </g>
  </g>
</svg>
