<?xml version="1.0" encoding="UTF-8"?>
<!-- Created with Inkscape (http://www.inkscape.org/) -->
<svg width="105.52mm" height="95.791mm" version="1.1" viewBox="0 0 105.52 95.791" xmlns="http://www.w3.org/2000/svg">
 <g transform="translate(-44.284 -77.59)">
  <circle cx="92.045" cy="125.35" r="47.761" fill="#00a8ff"/>
  <circle cx="92.045" cy="125.35" r="47.761" fill="#0075ff"/>
  <path d="m49.453 146.78c-0.3743-2.4109 6.6423-1.4371 13.255-10.556 2.9782-4.1074 5.225-6.0442 8.6427-7.4502 2.8898-1.1888 6.9373-1.3626 8.8384-0.37947 1.5598 0.80661 2.8873 2.6273 3.2978 4.5232 0.35936 1.6595 0.13904 1.7716-1.0818 0.55079-1.838-1.838-5.224-0.58046-6.4086 2.3801-1.3252 3.312 0.3109 6.8733 3.1577 6.8733 2.4391 0 3.8925-1.0679 6.5116-4.7844 4.9225-6.985 9.6993-10.199 15.152-10.196 3.8331 3e-3 6.3009 1.8427 6.9722 5.1988 0.32688 1.6344 0.0729 1.7509-1.1503 0.52776-2.8763-2.8763-7.5594 1.4489-6.5798 6.0768 0.45031 2.1273 1.5919 3.1768 3.4535 3.1749 2.3628-3e-3 4.0367-1.2783 6.7413-5.1381 4.7342-6.7562 9.3775-9.8438 14.798-9.8402 2.9516 2e-3 4.9384 1.0132 6.2649 3.1889 0.79466 1.3033 1.2022 3.419 0.65857 3.419-0.12117 0-0.61689-0.39657-1.1016-0.88127-1.3369-1.3369-3.2713-1.1275-5.089 0.5508-2.742 2.5316-2.6419 6.6053 0.2365 9.6311 1.63 1.7135 3.9455 1.6494 3.9455 1.6494l5.3561-0.2795c-10.656 30.631-63.813 43.674-85.871 1.7603z" fill="#00f" stroke-width=".44064"/>
  <g transform="translate(.0318 2.5288)">
   <path d="m121.6 153.96c-0.61046-0.33099-0.79138-0.91393-0.43308-1.3954 0.2348-0.3155 0.42589-0.38893 1.1072-0.42548 0.70782-0.038 0.889 0.011 1.2908 0.34908 0.5448 0.45842 0.60647 0.9739 0.16886 1.4115-0.36633 0.36633-1.5097 0.39864-2.1337 0.0603zm1.9178-0.36752c0.21211-0.23438 0.24067-0.36711 0.12042-0.5597-0.2299-0.36821-0.79912-0.62087-1.4044-0.62339-0.61567-3e-3 -0.88805 0.21414-0.88805 0.7065 0 0.69296 1.6488 1.0548 2.1721 0.47659zm-63.56-1.4865c-0.85911-0.6779-0.23418-1.7437 1.1105-1.8939 0.87212-0.0974 1.5111 0.36349 1.4431 1.0409-0.0958 0.95426-1.7325 1.501-2.5536 0.853zm1.9576-0.39804c0.43079-0.26865 0.38541-0.7942-0.08892-1.0298-0.45132-0.22412-1.5208-0.0256-1.7814 0.33069-0.6203 0.84831 0.78728 1.3744 1.8703 0.69906zm31.776-0.61584-0.85636-0.97554-0.85652 0.0322c-2.0917 0.0786-3.7097-1.8685-3.205-3.8569l0.149-0.58702-1.2961-1.4622c-3.6006-4.0621-15.045-17.171-15.157-17.362-0.16676-0.28357 0.26854 0.12331 8.8767 8.2974 3.9813 3.7805 7.7003 7.3049 8.2643 7.8318l1.0255 0.95813 1.0081-0.0466c0.78797-0.0364 1.1393 0.0204 1.6093 0.26014 1.2092 0.6169 1.9592 2.0592 1.7413 3.3487-0.09861 0.58366-0.0842 0.60772 0.90048 1.5038l1.0007 0.91062-2.3478 2.1231zm28.438 0.49561c-0.62297-0.27077-0.8965-0.82911-0.66022-1.3477 0.50386-1.1058 2.8989-0.61068 2.8989 0.59933 0 0.8597-1.1206 1.2343-2.2387 0.74835zm1.6142-0.23054c0.337-0.18036 0.38226-0.77606 0.0781-1.0285-0.51245-0.4253-1.9134-0.3762-2.0859 0.0731-0.27061 0.70519 1.1829 1.3968 2.0077 0.95537zm-59.386-0.99255c0.03906-0.20284 0.58298-0.34659 2.8094-0.74249 1.5185-0.27002 2.7778-0.49264 2.7983-0.49472 0.02052-2e-3 0.03731 0.13055 0.03731 0.29473 0 0.16417-0.01679 0.29855-0.03731 0.2986-0.02052 6e-5 -1.1791 0.20151-2.5746 0.44766-2.978 0.5253-3.098 0.53306-3.0331 0.19622zm51.988-0.12932c-1.0672-0.19409-2.1586-0.39234-2.4254-0.44054-0.35635-0.0644-0.48507-0.16685-0.48507-0.38615 0-0.25559 0.0697-0.28567 0.48507-0.20919 0.26679 0.0491 1.5258 0.27369 2.7978 0.49902 1.8567 0.32892 2.3224 0.4598 2.3617 0.66372 0.0645 0.3348-0.28499 0.31859-2.7342-0.12686zm6.628-1.5594c-0.38535-0.41044-0.74138-0.74626-0.79118-0.74626s-0.0916 0.1847-0.0928 0.41044c-3e-3 0.45041-0.22595 0.90361-0.373 0.75656-0.0998-0.0998 0.1695-1.7572 0.30797-1.8957 0.0457-0.0457 0.26191 0.14994 0.48048 0.43474 0.21857 0.28481 0.61517 0.74 0.88133 1.0115 0.41032 0.4186 0.5303 0.46888 0.78874 0.33057 0.35886-0.19205 0.39663-0.63649 0.0809-0.95219-0.28201-0.28202-0.28351-0.39446-5e-3 -0.39446 0.51828 0 0.70566 1.1359 0.25469 1.544-0.44489 0.40262-0.79107 0.2898-1.5319-0.49925zm-58.792-0.18421c0-0.16941 0.2755-0.24578 1.1567-0.32066 0.63619-0.0541 1.4422-0.13811 1.791-0.18679 0.49868-0.0696 0.63432-0.0416 0.63432 0.13087 0 0.16706-0.29361 0.24357-1.2313 0.32087-0.67724 0.0558-1.4832 0.14123-1.791 0.18979-0.43582 0.0687-0.5597 0.0391-0.5597-0.13408zm53.071-0.0227c-0.92515-0.10383-1.504-0.23622-1.5423-0.35277-0.0726-0.22075 0.10903-0.21953 2.1156 0.0142 0.91923 0.10706 1.5039 0.24314 1.5423 0.35898 0.0711 0.21444-0.0323 0.21345-2.1156-0.0204zm-53.22-1.8666c0-0.24352 0.45739-0.31447 2.0271-0.31447 1.7527 0 2.0749 0.20623 0.54749 0.35049-1.4339 0.13542-2.5746 0.11947-2.5746-0.036zm52.5 0.0236c-0.38993-0.0308-0.70896-0.11939-0.70896-0.19698 0-0.15426 3.1078-0.19915 3.4952-0.0505 0.8078 0.30998-0.50956 0.42698-2.7863 0.24746zm-51.567-1.7919c-1.6433-0.0933-1.0226-0.33725 0.8582-0.33725 1.4925 0 1.791 0.0373 1.791 0.22388 0 0.23239-0.31609 0.24591-2.6492 0.11337zm50.858-0.091c0-0.21567 0.23154-0.24623 1.8657-0.24623 1.1443 0 1.8657 0.0577 1.8657 0.14926 0 0.0821-0.22475 0.14925-0.49945 0.14925s-1.1142 0.0436-1.8657 0.097c-1.2092 0.0858-1.3662 0.0687-1.3662-0.14925zm-49.892-1.6636c-0.88486-0.10087-1.6517-0.22621-1.704-0.27853-0.2428-0.24279 0.22163-0.26733 1.8139-0.0958 1.276 0.13746 1.7228 0.23901 1.7228 0.39164 0 0.11333-0.05037 0.19707-0.11194 0.18608-0.06157-0.011-0.83592-0.10251-1.7208-0.20338zm49.795 0.038c-0.0452-0.0731-0.0587-0.15589-0.0299-0.18387 0.0287-0.028 0.84464-0.13224 1.8131-0.2317 1.6078-0.16512 2.0916-0.14208 1.8609 0.0886-0.15765 0.15765-3.56 0.46292-3.6441 0.32696zm6.4794-0.34677c-0.80611-0.43739-0.66222-1.4059 0.26651-1.7939 1.0281-0.42959 1.9955-0.15804 2.2212 0.6235 0.12777 0.44242-0.40777 1.0625-1.0785 1.2488-0.71919 0.19974-0.91686 0.18874-1.4092-0.0784zm1.7932-0.44648c0.42216-0.29569 0.43401-0.89643 0.022-1.1169-0.41357-0.22133-1.3672-0.0479-1.7627 0.32052-0.36395 0.33907-0.36737 0.35477-0.16118 0.74004 0.19628 0.36675 1.4074 0.40263 1.9018 0.0564zm-62.354 0.41635c0-0.063-0.31058-0.46954-0.69017-0.90347-0.49313-0.56372-0.78075-0.77604-1.0075-0.7437-0.35553 0.0507-0.52207 0.64645-0.2553 0.91322 0.08904 0.089 0.16189 0.25961 0.16189 0.37905 0 0.17239-0.06155 0.16146-0.29851-0.053-0.33426-0.3025-0.40322-1.1042-0.1194-1.388 0.39616-0.39616 0.96716-0.20146 1.656 0.56466 0.62291 0.69283 0.67483 0.72094 0.75806 0.41045 0.04914-0.18333 0.09026-0.49004 0.09138-0.68158 0.0011-0.19155 0.07424-0.32419 0.16248-0.29478 0.20359 0.0679 0.20146 0.0378 0.07455 1.0535-0.07422 0.59407-0.17282 0.8582-0.32036 0.8582-0.11723 0-0.21314-0.0515-0.21314-0.1145zm5.597-1.1619c-1.0672-0.1941-2.1586-0.39234-2.4254-0.44054-0.442-0.0799-0.65567-0.40568-0.37313-0.56895 0.06157-0.0356 1.3204 0.14733 2.7974 0.40647 2.1897 0.38419 2.6946 0.51848 2.7348 0.72752 0.065 0.3375-0.27985 0.3218-2.7337-0.1245zm46.22 0.12932c0.0391-0.20284 0.58298-0.34659 2.8094-0.74249 1.5185-0.27002 2.7778-0.49265 2.7983-0.49473 0.0205-2e-3 0.0373 0.12522 0.0373 0.28287 0 0.32204 0.13849 0.28286-2.9328 0.8298-2.5342 0.45129-2.7774 0.46246-2.7123 0.12455zm8.032-1.4258c-0.4513-0.48441-0.35689-1.2981 0.18579-1.6013 0.33592-0.18769 0.46234-0.19475 0.71066-0.0397 0.25067 0.15655 0.36626 0.14656 0.67959-0.0588 0.51457-0.33716 1.0466-0.0942 1.1863 0.5417 0.13904 0.63302-0.26397 1.0942-0.87749 1.0042-0.2912-0.0427-0.52814 0.0278-0.71231 0.21193-0.36914 0.36914-0.79415 0.34808-1.1726-0.0581zm1.1412-0.33792c0.0473-0.12332 0.0439-0.39197-8e-3 -0.59701-0.0735-0.2926-0.18868-0.3728-0.53565-0.3728-0.34767 0-0.46217 0.0801-0.53621 0.37507-0.054 0.21512-0.0156 0.46972 0.0901 0.59701 0.23889 0.28784 0.87856 0.28637 0.98932-2e-3zm1.2419-0.29101c0.30048-0.36206 0.045-0.85292-0.41603-0.79942-0.40234 0.0467-0.57682 0.38246-0.41622 0.80097 0.1067 0.27807 0.60096 0.27714 0.83225-2e-3zm-63.538 0.59125c-0.62297-0.27077-0.89649-0.82911-0.66022-1.3477 0.50386-1.1058 2.8989-0.61068 2.8989 0.59933 0 0.85969-1.1206 1.2343-2.2387 0.74834zm1.52-0.22159c0.43128-0.16397 0.52739-0.7427 0.17229-1.0374-0.51245-0.42529-1.9134-0.3762-2.0859 0.0731-0.26719 0.69629 0.97374 1.3216 1.9136 0.96431zm4.45-0.57186c-1.0038-0.25441-1.5298-0.4578-1.5298-0.59148 0-0.1238 0.10248-0.1736 0.26119-0.12692 0.14366 0.0422 0.69776 0.18517 1.2313 0.3176 1.8838 0.46754 2.0895 0.53412 2.0895 0.67621 0 0.20552-0.32886 0.16139-2.0522-0.27541zm48.768 0.27541c0-0.14209 0.20573-0.20867 2.0895-0.67621 0.53358-0.13243 1.0877-0.27535 1.2313-0.3176 0.16363-0.0481 0.26119 4e-3 0.26119 0.13869 0 0.1492-0.48085 0.33601-1.5626 0.60707-1.7029 0.4267-2.0195 0.46559-2.0195 0.24805zm-48.334-2.0492c-1.0281-0.35142-1.4931-0.57717-1.3937-0.67658 0.17145-0.17145 3.459 0.86511 3.459 1.0906 0 0.22818-0.45088 0.13779-2.0653-0.41404zm47.886 0.41c0-0.11623 3.1648-1.2023 3.5034-1.2023 0.0569 0 0.0794 0.0725 0.0498 0.161-0.0509 0.15279-2.9722 1.1772-3.3667 1.1806-0.10261 9e-4 -0.18657-0.0618-0.18657-0.13933zm6.2686-0.2117c0-0.13825 0.37052-0.26282 1.1567-0.38889 0.63619-0.10201 1.2093-0.21733 1.2736-0.25625 0.0643-0.0389-0.0539-0.20513-0.26261-0.36933-0.20876-0.16421-0.3415-0.36014-0.29498-0.43542 0.12084-0.19552 1.1257 0.64017 1.0776 0.89622-0.0265 0.14112-0.4936 0.30187-1.3833 0.47602-1.664 0.32572-1.5672 0.32092-1.5672 0.0777zm-53.277-1.8076c-0.85875-0.35245-1.5864-0.71581-1.6169-0.80746-0.08473-0.2542 0.06235-0.21585 1.7936 0.46768 0.88365 0.34888 1.6071 0.71828 1.6076 0.82089 0.0013 0.25119-0.0026 0.25014-1.7843-0.48111zm46.478 0.50395c-0.0526-0.085-0.0721-0.17275-0.0433-0.19489 0.24733-0.19052 3.2954-1.2987 3.3692-1.2249 0.18256 0.18255-0.0291 0.29081-2.5274 1.2926-0.45989 0.18441-0.73599 0.2284-0.79852 0.12723zm-45.875-2.2304c-1.073-0.51596-1.5077-0.79607-1.4011-0.90269 0.10662-0.10663 0.64725 0.0904 1.7423 0.63501 1.467 0.72961 1.8713 1.0233 1.4011 1.0179-0.10261-1e-3 -0.88664-0.33879-1.7423-0.75024zm45.15 0.62388c-0.0437-0.0707 0.6072-0.44681 1.4464-0.83587 1.9612-0.90919 1.899-0.88643 1.899-0.69474 0 0.15703-2.8272 1.6591-3.1228 1.6591-0.0787 0-0.17889-0.0578-0.22257-0.12851zm-43.34-1.558c-2.2422-1.2778-2.6382-1.5932-2.2789-1.8153 0.18989-0.11736 4.9344 2.629 4.9344 2.8563 0 0.0991-0.05533 0.21435-0.12296 0.25614-0.06763 0.0418-1.2073-0.54192-2.5325-1.2972zm40.804 1.1491c-0.0531-0.13836-0.0782-0.26572-0.0557-0.28304 0.4959-0.38247 4.8094-2.7377 4.9054-2.6784 0.35442 0.21904-0.0396 0.53747-2.2055 1.7825-2.7913 1.6045-2.5262 1.4863-2.6442 1.179zm-47.625-3.0409c-0.4945-0.98194-0.66331-1.584-0.41232-1.4705 0.06157 0.0278 0.47859 0.24317 0.92672 0.47852 0.51489 0.27042 0.83534 0.36624 0.87064 0.26034 0.09864-0.29593 0.36717-0.17853 0.2876 0.12573-0.05224 0.19977 0.01361 0.32198 0.20647 0.38319 0.15575 0.0494 0.28318 0.14855 0.28318 0.22027 0 0.20804-0.26878 0.31684-0.37163 0.15043-0.17874-0.28921-0.45739-0.14912-0.73733 0.3707-0.15473 0.28731-0.33707 0.52239-0.4052 0.52239-0.06813 0-0.35979-0.46847-0.64813-1.041zm0.88176 0.16849c0.21646-0.41858 0.21122-0.42954-0.35775-0.74932l-0.57742-0.32453 0.31658 0.74932c0.17412 0.41213 0.33511 0.74933 0.35775 0.74933 0.02264 0 0.14002-0.19116 0.26084-0.4248zm54.789 0.51469c-0.29077-0.29077-0.36711-0.4803-0.2927-0.7267 0.15967-0.52871 0.82658-1.1462 1.4348-1.3284 0.46782-0.14016 0.62249-0.12601 0.94705 0.0867 0.21336 0.13979 0.42514 0.35115 0.47062 0.46969 0.25311 0.65959-0.64159 1.6447-1.6411 1.8069-0.4334 0.0703-0.5941 0.0164-0.91866-0.30812zm1.6092-0.33986c0.2293-0.11668 0.49554-0.38472 0.59164-0.59563 0.15208-0.33378 0.13197-0.41812-0.15518-0.65063-0.39334-0.31851-0.81106-0.24671-1.4877 0.25572-0.54338 0.40347-0.64887 0.98179-0.22388 1.2273 0.2803 0.16196 0.61287 0.1002 1.2751-0.23679zm-50.342-0.58089c-1.3473-0.91389-1.7184-1.2587-1.3546-1.2587 0.28171 0 2.9892 1.8565 2.9929 2.0522 0.0056 0.29448-0.13356 0.22709-1.6382-0.79355zm41.573 0.8402c-0.0799-0.1293 2.2805-1.834 2.8329-2.046 0.59303-0.22756 0.0881 0.2773-1.085 1.0849-1.6612 1.1436-1.6417 1.133-1.748 0.9611zm-40.453-2.2742c-1.1548-0.89748-1.6786-1.4664-1.3499-1.4664 0.04941 0 0.70919 0.48281 1.4662 1.0729 0.75697 0.59011 1.4054 1.095 1.441 1.1219 0.03557 0.0269 2e-3 0.10896-0.07463 0.18228-0.08351 0.0799-0.67726-0.28477-1.4826-0.91063zm39.417 0.94442c-0.0479-0.0775 0.50022-0.60424 1.218-1.1705 1.5792-1.2458 1.6353-1.2814 1.7434-1.1065 0.0696 0.11255-0.77932 0.83122-2.701 2.2867-0.10115 0.0766-0.20953 0.0726-0.26037-0.01zm6.994-0.53843c-0.44823-0.44823-0.46321-0.81353-0.0547-1.3329 0.69529-0.88392 2.0239-1.1353 2.4625-0.46599 0.25781 0.39346 0.1886 1.1205-0.10666 1.1205-0.1005 0-0.12546-0.14795-0.0654-0.38741 0.12464-0.49659-0.1334-0.80661-0.67135-0.80661-0.5481 0-0.65296 0.19303-0.28552 0.52557 0.29432 0.26635 0.38851 0.89467 0.18076 1.2058-0.13238 0.19826-0.69748 0.50741-0.92751 0.50741-0.0912 0-0.33071-0.16486-0.5322-0.36635zm1.0963-0.26051c0.27645-0.27645 0.21377-0.63181-0.17603-0.99801l-0.35514-0.33363-0.31447 0.39978c-0.17295 0.21988-0.29215 0.44226-0.26489 0.49418 0.0273 0.0519 0.0914 0.21193 0.14254 0.35559 0.10668 0.29975 0.70001 0.35007 0.96799 0.0821zm-54.469-0.0374c-0.56976-0.38716-0.72509-0.6422-0.72509-1.1905 0-0.69628 0.92133-1.0587 1.6889-0.66433 1.0147 0.52132 1.4436 1.4548 0.91236 1.986-0.35458 0.35459-1.2538 0.29171-1.8762-0.13119zm1.7218-0.26859c0.42305-0.67565-1.2336-1.7558-1.9211-1.2525-0.24403 0.17863-0.26986 0.28668-0.14925 0.6242 0.28352 0.79343 1.6981 1.2227 2.0703 0.62831zm7.0307-0.66381c-1.772-1.614-2.029-1.8816-1.9153-1.9938 0.12855-0.12683 2.7362 2.1704 2.7362 2.4104 0 0.24425-0.21527 0.13499-0.82089-0.41664zm36.585 0.43231c-0.0754-0.12196 2.4549-2.567 2.6565-2.567 0.31579 0-0.0647 0.51449-0.99574 1.3466-1.4367 1.284-1.5638 1.3773-1.6608 1.2204zm-34.123-2.7088c-0.94402-1.1359-1.7164-2.1508-1.7164-2.2553 0-0.53916 0.49896-0.1042 2.1633 1.8858 1.394 1.6668 1.7804 2.218 1.624 2.3171-0.11285 0.0715-0.23877 0.12722-0.27981 0.12388-0.04104-3e-3 -0.84701-0.9355-1.791-2.0714zm30.343 1.918c-0.12424-0.12423 0.29547-0.71567 1.6166-2.278 1.7033-2.0142 2.0489-2.3224 2.1761-1.9406 0.0499 0.14986-3.2735 4.248-3.5254 4.3472-0.0547 0.0215-0.17497-0.0363-0.26726-0.12863zm10.701-0.33128c0-0.12387 0.43361-0.46771 0.96358-0.76408 0.52997-0.29638 1.0007-0.59893 1.0461-0.67234 0.0454-0.0734-0.11958-0.17786-0.36657-0.2321-0.61069-0.13413-0.58972-0.43887 0.0218-0.31657 0.4955 0.0991 0.87243 0.33956 0.87243 0.55656 0 0.1293-0.50136 0.46972-1.8284 1.2414-0.54939 0.3195-0.70895 0.36161-0.70895 0.18708zm-42.963-1.2345c-1.1402-1.2186-1.3774-1.5537-1.1002-1.5537 0.06338 0 0.68223 0.56996 1.3752 1.2666 0.89547 0.90015 1.2137 1.3128 1.1002 1.4264-0.11358 0.11358-0.51142-0.216-1.3752-1.1392zm34.864 1.1859c-0.13172-0.21958 2.3923-2.8345 2.5672-2.6596 0.10648 0.10648-0.25648 0.56355-1.1681 1.4709-0.7274 0.72404-1.357 1.259-1.3992 1.1887zm-31.986-3.3652c-1.1249-1.5552-1.1428-1.5858-1.0304-1.7677 0.09502-0.15375 2.161 2.5611 2.161 2.8397 0 0.3595-0.30276 0.0724-1.1306-1.072zm29.386 1.018c0.18203-0.47438 2.083-2.9227 2.2088-2.8449 0.16823 0.10397 0.15574 0.12519-1.0266 1.7435-0.52479 0.71828-1.0231 1.306-1.1074 1.306s-0.11796-0.0921-0.0748-0.20454zm-27.451-1.3198c-0.22047-0.35191-0.61288-0.97565-0.87204-1.3861-0.25916-0.41045-0.51884-0.82558-0.57708-0.92252-0.05824-0.0969-0.03913-0.21751 0.04246-0.26794 0.13083-0.0809 0.67176 0.67779 1.7716 2.4846 0.20074 0.32979 0.27427 0.58448 0.18472 0.63983-0.08183 0.0506-0.32916-0.19598-0.54962-0.54788zm26.026 0.54324c-0.0471-0.0471 0.35464-0.78938 0.8927-1.6496 0.57754-0.9233 1.0332-1.5091 1.1122-1.4301 0.0791 0.0791-0.25097 0.75388-0.80565 1.6473-0.91949 1.4811-1.0248 1.6068-1.1993 1.4323zm-21.494-2.8621c-0.81218-2.2074-0.93822-2.6702-0.75579-2.7749 0.12042-0.0691 0.24873-0.0958 0.28514-0.0594s0.49367 1.2347 1.0161 2.6629c0.89463 2.4455 0.96143 2.8073 0.52047 2.8183-0.05017 1e-3 -0.52985-1.1899-1.066-2.647zm16.217 2.5573c-0.16289-0.0666 1.6828-5.4329 1.8669-5.4281 0.4613 0.012 0.40148 0.35087-0.49987 2.8319-0.51999 1.4313-1.0034 2.616-1.0743 2.6328-0.0709 0.0168-0.20261 3e-4 -0.29278-0.0366zm-19.724-1.9865c-0.43097-0.8123-0.78358-1.5501-0.78358-1.6395 0-0.44106 0.32264-0.0244 1.0576 1.3658 1.0008 1.893 0.94522 1.7556 0.70854 1.7528-0.10945-1e-3 -0.55161-0.6669-0.98258-1.4792zm23.54 1.3696c-0.0114-0.2773 1.5919-3.1672 1.7583-3.1693 0.10261-1e-3 0.18657 0.0275 0.18657 0.064 0 0.2032-1.69 3.2172-1.804 3.2172-0.075 0-0.1384-0.0504-0.14094-0.11194zm-33.336-0.93326c-0.68593-0.75924-0.7615-1.6384-0.17393-2.0234 0.21537-0.14111 0.4916-0.19978 0.67164-0.14263 0.45884 0.14563 0.36841 0.35048-0.17804 0.4033-0.52419 0.0507-0.65792 0.3116-0.49415 0.96414l0.09321 0.37137 0.42765-0.4578c0.51675-0.55319 0.94502-0.5805 1.4341-0.0914 0.44697 0.44696 0.4578 0.67116 0.05701 1.1807-0.4861 0.61798-1.1626 0.54281-1.8375-0.20418zm1.543 0.0833c0.09844-0.11861 0.15704-0.37048 0.13021-0.55969-0.03774-0.26623-0.15823-0.3546-0.53277-0.39073-0.39635-0.0382-0.5152 0.0218-0.65627 0.3314-0.13336 0.2927-0.12948 0.42965 0.0172 0.60639 0.23931 0.28835 0.80708 0.29524 1.0416 0.0126zm41.321 0.25298c-0.40514-0.47176-0.43099-0.61513-0.20741-1.1502 0.31552-0.75513 0.92864-1.2751 1.5035-1.2751 0.86363 0 1.2082 0.75107 0.75059 1.636-0.48278 0.93359-1.5645 1.3508-2.0467 0.78934zm1.3883-0.50249c0.75477-0.80798 0.70767-1.6244-0.0937-1.6244-0.4231 0-1.2658 0.92756-1.2658 1.3932 0 0.79479 0.71885 0.91699 1.3596 0.23112zm-32.809-0.9934c-0.75572-1.7454-0.75285-1.7362-0.5654-1.8056 0.08209-0.0304 0.46309 0.64127 0.84668 1.4925 0.78241 1.7364 0.79346 1.7729 0.53391 1.7683-0.10261-2e-3 -0.46944-0.6567-0.81519-1.4552zm10.405-1.4518c0-2.7124 0.01959-2.9286 0.26119-2.882 0.23781 0.0458 0.26119 0.30381 0.26119 2.882s-0.02338 2.8362-0.26119 2.882c-0.2416 0.0465-0.26119-0.16967-0.26119-2.882zm9.9999 2.7416c0-0.29373 1.3756-3.264 1.5117-3.264 0.22308 0 0.15075 0.23886-0.56301 1.8593-0.62026 1.4082-0.94868 1.8945-0.94868 1.4048zm9.4843-1.0143c-0.0608-0.0984-6e-3 -0.29448 0.12172-0.43567 0.21333-0.23573 0.18907-0.29121-0.29695-0.67902-0.32051-0.25574-0.47534-0.47623-0.39254-0.55903 0.23428-0.23429 2.3018-0.76051 2.4411-0.62129 0.0746 0.0746-0.12538 0.44036-0.46667 0.85337-0.44562 0.53925-0.55692 0.77137-0.43837 0.91421 0.10189 0.12278 0.10645 0.22386 0.0127 0.2818-0.0804 0.0497-0.19402 0.013-0.25248-0.0816-0.0718-0.11617-0.18932-0.0619-0.36209 0.16712-0.18014 0.23882-0.28851 0.28619-0.3664 0.16015zm0.96286-1.4282c0.19249-0.2049 0.32164-0.40089 0.28699-0.43554-0.0346-0.0346-0.38207 0.01-0.77204 0.0993-0.67476 0.1544-0.69708 0.17546-0.46172 0.43554 0.33076 0.36549 0.52976 0.34463 0.94677-0.0993zm-40.104 1.1248c-1.4256-0.86922-1.0759-3.0068 0.39235-2.3986 0.57789 0.23937 1.2049 1.1141 1.2049 1.6809 0 0.46524-0.46343 1.0104-0.8582 1.0096-0.14366-3e-4 -0.47621-0.13167-0.73902-0.29191zm1.2693-0.61952c0.02947-0.25397-0.09619-0.55765-0.36096-0.87232-0.47867-0.56886-0.92645-0.77069-1.2887-0.58085-0.40054 0.20989-0.31164 0.80479 0.20887 1.3976 0.37927 0.43196 0.55944 0.52666 0.93283 0.49027 0.37351-0.0364 0.47149-0.12025 0.50798-0.43471zm11.748 0.72542c-0.45148-1.3429-0.91104-3.2667-0.79716-3.3371 0.07856-0.0486 0.16438-0.0648 0.19071-0.036 0.05933 0.0648 0.97705 3.3096 0.97705 3.4546 0 0.18133-0.30477 0.11436-0.3706-0.0814zm13.394 0c0.0387-0.10261 0.25011-0.82462 0.46981-1.6045 0.53216-1.889 0.52242-1.8648 0.68693-1.7003 0.2107 0.2107-0.74176 3.4914-1.0136 3.4914-0.11741 0-0.18181-0.084-0.14312-0.18657zm-11.728-0.35811c-0.26524-0.9428-0.71332-3.3705-0.6363-3.4476 0.19029-0.19029 0.34609 0.23162 0.66894 1.8115 0.21258 1.0402 0.28046 1.6769 0.18859 1.7687-0.09187 0.0919-0.1715 0.0441-0.22124-0.13269zm10.151 0.14337c-0.07862-0.12721 0.59455-3.4806 0.72487-3.611 0.25116-0.25115 0.22828 0.36858-0.06699 1.8151-0.33152 1.624-0.49249 2.0635-0.65788 1.7959zm-8.5139-0.68078c-0.38413-2.1751-0.45678-3.5067-0.176-3.2259 0.08126 0.0813 0.52696 2.9667 0.52696 3.4115 0 0.48076-0.2573 0.3447-0.35095-0.18559zm6.8554 0.35519c-0.0458-0.0741 0.02767-0.91476 0.16328-1.8681 0.1809-1.2717 0.30239-1.7334 0.45616-1.7334 0.12777 0 0.18124 0.10197 0.13698 0.2612-0.03994 0.14365-0.15645 0.9526-0.25892 1.7977-0.17588 1.4505-0.30568 1.853-0.49751 1.5426zm-5.1742-0.65369c-0.0071-0.26679-0.05789-1.0728-0.11277-1.791-0.07273-0.952-0.05261-1.306 0.07422-1.306 0.11224 0 0.20659 0.46353 0.26583 1.306 0.05051 0.71828 0.11948 1.5242 0.15327 1.791 0.04442 0.35074 2e-3 0.48507-0.15306 0.48507-0.13983 0-0.21902-0.16886-0.22749-0.48507zm3.4974-0.74627c0.05272-0.67723 0.09626-1.4832 0.09675-1.791 5.97e-4 -0.40215 0.06508-0.5597 0.22893-0.5597 0.1904 0 0.21404 0.16629 0.14326 1.0075-0.17954 2.1335-0.24878 2.5746-0.40416 2.5746-0.10944 0-0.13009-0.39241-0.06478-1.2313zm15.843 0.63376c-0.0545-0.0882 0.24329-0.57748 0.66174-1.0873l0.76082-0.92701-0.44991-0.0468c-0.69511-0.0723-0.58586-0.47561 0.12882-0.47561 1.0037 0 0.99469 0.25141-0.0553 1.5372-0.54016 0.66149-0.98971 1.091-1.0462 0.99955zm-30.294-3.1297c-0.18894-0.20877-0.24018-0.42593-0.17612-0.74627 0.05222-0.26108 0.02758-0.45181-0.05836-0.45181-0.28761 0-0.48476-0.68379-0.29786-1.033 0.44993-0.84071 1.7463-0.59975 1.6143 0.30004-0.0403 0.27461 0.0024 0.43449 0.11598 0.43449 0.28424 0 0.55212 0.41223 0.55212 0.84964 0 0.81188-1.1995 1.2553-1.7501 0.64694zm1.1838-0.20471c0.43286-0.31652 0.20147-0.99337-0.33961-0.99337-0.46469 0-0.77327 0.23825-0.77327 0.59702 0 0.54572 0.611 0.76333 1.1129 0.39635zm-0.60279-1.339c0.41942-0.30669 0.24543-0.77371-0.28825-0.77371-0.35623 0-0.45583 0.0715-0.49608 0.35625-0.0277 0.19594 0.03946 0.41319 0.14925 0.48279 0.26715 0.16933 0.32186 0.16371 0.63509-0.0653zm23.896 1.3946c-0.20913-0.23108-0.25031-0.46181-0.19156-1.0732 0.061-0.63436 0.1619-0.85664 0.54412-1.1982 0.25811-0.23062 0.60256-0.41931 0.76544-0.41931 0.43408 0 0.89317 0.53202 0.89317 1.0351 0 1.4365-1.2662 2.4789-2.0112 1.6556zm1.2438-0.38428c0.54571-0.69375 0.58826-1.7236 0.0793-1.919-0.5363-0.2058-1.2522 0.66064-1.2522 1.5156 0 0.81883 0.66592 1.0479 1.1729 0.40338zm-3.2403-0.18767c-0.35726-0.13919-0.6485-0.32024-0.64722-0.40233 1e-3 -0.0821 0.41235-0.37424 0.91347-0.64922 1.0508-0.57659 1.2897-0.89325 0.98659-1.3077-0.18214-0.24909-0.26256-0.26044-0.69333-0.0978-0.57303 0.21629-0.7793 0.1058-0.36627-0.19621 0.40161-0.29367 1.0339-0.26451 1.3287 0.0613 0.53593 0.59219 0.18706 1.1733-1.0963 1.826l-0.67164 0.34162 0.70895 0.22381c0.70268 0.22184 0.95049 0.47743 0.44776 0.4618-0.14366-4e-3 -0.55349-0.122-0.91074-0.26119zm-20.127-0.21576c-0.74109-0.81365-0.89422-2.0077-0.30996-2.4169 0.63921-0.44772 1.2537-0.17732 1.7392 0.7653 0.64519 1.2527-0.54246 2.6252-1.4292 1.6516zm1.0641-0.19723c0.68442-0.68441-0.44857-2.6141-1.1789-2.0079-0.56195 0.46638 0.0928 2.2043 0.84312 2.2379 0.0557 3e-3 0.20682-0.101 0.33582-0.23zm17.249-0.27766c0-0.0354 0.19881-0.60366 0.4418-1.2627l0.44181-1.1982-0.3769 0.14329c-0.47293 0.17981-0.65597 0.18138-0.65597 6e-3 0-0.18602 1.0039-0.50694 1.2684-0.40546 0.17154 0.0658 0.12124 0.33505-0.26735 1.4309-0.26326 0.74237-0.56261 1.3501-0.66522 1.3504s-0.18656-0.0284-0.18656-0.0638zm-10.495-0.92809c-0.05609-0.0561-0.10199-0.67339-0.10199-1.3718v-1.2698l-0.37254 0.34999c-0.2049 0.19249-0.42314 0.29939-0.48497 0.23756-0.14706-0.14706 0.82851-1.0177 1.0559-0.94237 0.1125 0.0373 0.19011 0.5537 0.21794 1.4503 0.04002 1.289-0.0633 1.7972-0.31438 1.5461zm1.5877-0.0804c-0.45959-0.22219-0.69703-0.89893-0.60425-1.7221 0.1976-1.7531 2.0488-1.5758 2.0488 0.19625 0 0.81519-0.23098 1.3261-0.69512 1.5376-0.20003 0.0911-0.37733 0.16117-0.39399 0.15561-0.01666-6e-3 -0.17663-0.0808-0.35549-0.16732zm0.99785-0.72056c0.23088-0.55739 0.09666-1.4973-0.25002-1.7508-0.32257-0.23588-0.37593-0.23406-0.72993 0.0248-0.35115 0.25677-0.40762 1.5405-0.08488 1.9294 0.33776 0.40698 0.85275 0.30861 1.0648-0.20341zm1.115 0.39139c-0.58547-0.89354-0.325-2.3716 0.45231-2.5667 1.1697-0.29359 1.836 1.3626 1.038 2.5804-0.31872 0.48644-1.1677 0.47862-1.4903-0.0137zm1.2668-0.22986c0.24122-0.45071 0.18719-1.5173-0.09251-1.8264-0.52914-0.58469-1.0963-0.13621-1.0963 0.86692 0 0.85623 0.2109 1.2482 0.67164 1.2482 0.20577 0 0.42946-0.12488 0.51713-0.2887z" fill="#9a0000" stroke-width=".14925"/>
   <g stroke="#000" stroke-width=".26458px">
    <path d="m53.026 122.81s12.756-5.5027 22.386-5.0025c9.6297 0.50024 20.385-0.12507 30.14 8.3791 9.7548 8.5042 10.38 13.006 10.38 13.006l8.2541 1.3757-0.50024-26.513-35.017-14.507-34.267 16.883z" fill="#fff"/>
    <path d="m53.026 122.81c-3.6268-3.7518 2.7514-18.384 7.5037-23.261 5.0296-5.1619 10.505-8.3791 16.508-10.005 6.003-1.6258 9.6297-1.7509 9.6297-1.7509s1.8759-2.5012 8.3791-4.6273c6.5032-2.126 9.2551-2.2661 12.756-2.126 10.222 0.55408 2.3108 3.9104-0.12506 6.5032-1.8759 2.126-2.126 3.1265-2.126 3.1265s11.13 5.6278 15.758 10.63c4.6273 5.0025 9.0044 13.131 10.13 18.259 1.1256 5.1275 0.50025 15.508 0 16.758-0.50024 1.2506-4.2521 4.3772-5.7528 4.8774-1.5007 0.50025-7.1285 1.3757-9.8799-0.50024-2.7514-1.8759 1.6258-1.3757 2.001-2.6263 0.37518-1.2506 0.87543-5.6278-2.2511-11.756s-15.383-17.008-23.637-17.008-5.8779 4.6273-5.0025 5.5027c0.87543 0.87543 6.3781 4.2521 7.2536 5.2526 0.87543 1.0005-1.2506 1.7509-3.2516 1.6258-2.001-0.12506-9.0044-1.1256-12.256-3.6268-3.2516-2.5012-5.8779-4.2521-6.3781-4.7523-0.50024-0.50025-1.3757-1.2506-2.5012-1.2506-1.1256 0-4.3772-0.62531-10.63 4.2521-6.2531 4.8774-6.128 6.5032-6.128 6.5032z"/>
    <path d="m66.408 102.93c2.7514 3.3766-5.5027 9.7548-7.6288 7.5037-2.126-2.2511 3.8769-9.0044 7.6288-7.5037z" fill="#fff"/>
   </g>
  </g>
 </g>
</svg>
